<svg width="1366" height="848" viewBox="0 0 1366 848" fill="none" xmlns="http://www.w3.org/2000/svg">
<g clip-path="url(#clip0_529_387)">
<path d="M719.901 193.297C720.192 193.442 720.482 193.559 720.773 193.704C720.831 193.384 720.861 193.064 720.861 192.744C720.541 192.919 720.25 193.093 719.901 193.297ZM672.415 193.617C672.096 193.733 671.776 193.878 671.427 194.053C671.776 194.227 672.183 194.431 672.532 194.634C672.474 194.314 672.415 193.966 672.386 193.617M719.901 193.297C720.192 193.442 720.482 193.559 720.773 193.704C720.831 193.384 720.861 193.064 720.861 192.744C720.541 192.919 720.25 193.093 719.901 193.297Z" fill="#DCF343"/>
<path d="M720.86 192.744C720.86 193.064 720.86 193.384 720.773 193.704C720.482 193.559 720.192 193.442 719.901 193.297C720.221 193.093 720.511 192.919 720.86 192.744Z" fill="#DCF343"/>
<path d="M672.561 194.634C672.212 194.431 671.805 194.227 671.456 194.053C671.775 193.849 672.095 193.704 672.444 193.617C672.444 193.937 672.531 194.285 672.59 194.634" fill="#DCF343"/>
<path d="M720.86 192.744C720.86 193.064 720.86 193.384 720.773 193.704C720.482 193.559 720.192 193.442 719.901 193.297C720.221 193.093 720.511 192.919 720.86 192.744Z" fill="#DCF343"/>
<path d="M672.561 194.634C672.212 194.431 671.805 194.227 671.456 194.053C671.775 193.849 672.095 193.704 672.444 193.617C672.444 193.937 672.531 194.285 672.59 194.634" fill="#DCF343"/>
<path d="M672.415 193.617C672.067 193.733 671.776 193.878 671.427 194.053C671.776 194.227 672.183 194.431 672.532 194.634C672.474 194.315 672.415 193.966 672.386 193.617" fill="#DCF343"/>
<path d="M863.346 70.422C769.451 -23.4642 617.166 -23.4642 523.271 70.422C429.376 164.337 429.376 316.579 523.271 410.494C617.195 504.41 769.422 504.38 863.346 410.494C910.308 363.508 933.804 301.983 933.804 240.458C933.804 178.933 910.308 117.409 863.346 70.422Z" fill="#4949E9"/>
<path d="M609.082 172.682L656.48 125.317C649.414 116.798 645.314 108.599 644.064 100.486C642.319 88.7397 646.535 77.6327 656.626 67.5724C660.086 64.0833 665.727 64.0833 669.188 67.5724C672.648 71.0324 672.648 76.6441 669.188 80.1332C661.22 88.0709 661.075 94.0606 661.656 97.8695C662.325 102.376 664.884 107.406 669.246 112.902C685.297 99.8467 708.531 100.167 724.234 113.774C736.592 98.1021 731.62 88.856 724.03 81.2962C720.57 77.8362 720.57 72.1955 724.03 68.7354C727.49 65.2754 733.103 65.2754 736.592 68.7354C748.805 80.9473 757.907 100.486 736.912 126.19L780.763 170.036C761.687 172.885 741.71 180.445 720.948 192.744C721.471 185.708 718.738 178.061 714.638 170.327L708.269 159.336C702.803 149.915 689.078 150.264 684.134 159.976L678.842 170.327C674.945 178.701 672.386 185.563 672.386 191.669C672.386 192.308 672.386 192.977 672.474 193.617C672.474 193.995 672.561 194.314 672.619 194.663C672.241 194.46 671.863 194.285 671.485 194.111C651.537 184.022 629.67 177.421 607.134 174.804C607.803 174.107 608.471 173.409 609.169 172.711" fill="#DCF343"/>
<path d="M783.35 346.934C767.444 362.839 748.281 373.48 728.014 378.86L701.552 258.95C701.029 256.624 698.964 254.967 696.58 254.967C694.195 254.967 692.101 256.624 691.607 258.95L665.146 379.063C644.616 373.713 625.162 363.013 609.053 346.934C567.15 305.036 561.742 240.458 592.827 192.715C628.448 194.373 663.081 207.05 690.24 228.653L696.114 233.363L702.046 228.74C736.359 202.02 767.91 188.296 796.232 187.86C811.673 209.289 819.408 234.556 819.408 259.823C819.408 291.341 807.369 322.888 783.292 346.934" fill="#DCF343"/>
<path d="M0 598.063H91.1035C151.558 598.063 189.448 627.081 189.448 688.606C189.448 750.13 151.558 778.101 91.1035 778.101H54.2317V842.766H0V598.092V598.063ZM135.216 688.606C135.216 660.635 120.851 649.121 91.1035 649.121H54.2317V726.724H91.1035C120.502 726.724 135.216 714.483 135.216 688.635" fill="#4949E9"/>
<path d="M282.674 848C224.517 848 193.81 807.788 193.81 761.674C193.81 715.559 224.197 674.271 282.674 674.271C341.151 674.271 371.538 713.785 371.538 761.674C371.538 809.562 340.831 848 282.674 848ZM320.273 761.296C320.273 738.587 308.496 719.688 282.703 719.688C256.91 719.688 245.133 738.209 245.133 761.296C245.133 784.382 258.539 802.903 282.703 802.903C306.867 802.903 320.273 785.08 320.273 761.296Z" fill="#4949E9"/>
<path d="M563.487 848C505.329 848 474.622 807.788 474.622 761.674C474.622 715.559 505.009 674.271 563.487 674.271C621.964 674.271 652.351 713.785 652.351 761.674C652.351 809.562 621.644 848 563.487 848ZM601.056 761.296C601.056 738.587 589.279 719.688 563.487 719.688C537.694 719.688 525.917 738.209 525.917 761.296C525.917 784.382 539.322 802.903 563.487 802.903C587.651 802.903 601.056 785.08 601.056 761.296Z" fill="#4949E9"/>
<path d="M804.432 663.658C788.236 663.658 777.535 653.133 777.535 637.345C777.535 621.556 788.236 610.42 804.432 610.42C820.629 610.42 831.621 621.266 831.621 637.345C831.621 653.424 820.629 663.658 804.432 663.658ZM778.611 679.156H829.905V842.737H778.611V679.156Z" fill="#4949E9"/>
<path d="M1101.06 848C1042.91 848 1012.2 807.788 1012.2 761.674C1012.2 715.559 1042.59 674.271 1101.06 674.271C1159.54 674.271 1189.93 713.785 1189.93 761.674C1189.93 809.562 1159.22 848 1101.06 848ZM1138.63 761.296C1138.63 738.587 1126.86 719.688 1101.06 719.688C1075.27 719.688 1063.49 738.209 1063.49 761.296C1063.49 784.382 1076.9 802.903 1101.06 802.903C1125.23 802.903 1138.63 785.08 1138.63 761.296Z" fill="#4949E9"/>
<path d="M1297.05 718.321C1278.76 718.321 1270.91 723.555 1270.91 731.958C1270.91 742.803 1285.28 743.85 1302.61 746.641C1330.06 751.526 1366 758.533 1366 795.227C1366 825.641 1341.17 848 1289.2 848C1233.66 848 1208.51 826.309 1208.51 826.309L1223.54 788.918C1223.54 788.918 1246.08 806.392 1285.63 806.392C1300.34 806.392 1309.15 801.857 1309.15 794.151C1309.15 782.608 1293.48 781.91 1274.52 778.77C1247.74 773.537 1214.06 765.831 1214.06 728.091C1214.06 702.562 1235.29 674.271 1293.13 674.271C1335.61 674.271 1360.1 686.861 1360.1 686.861L1349.31 731.609C1349.31 731.609 1331.34 718.321 1297.03 718.321" fill="#4949E9"/>
<path d="M729.526 789.616V598.063L678.231 612.049V844.86H719.726C723.128 844.86 726.414 844.656 729.526 844.337V789.616Z" fill="#4949E9"/>
<path d="M448.742 789.616V598.063L397.447 612.049V844.86H438.943C442.345 844.86 445.631 844.656 448.742 844.337V789.616Z" fill="#4949E9"/>
<path d="M982.219 789.616C982.219 789.616 970.443 798.367 951.163 798.367C935.81 798.367 929.936 791.738 929.936 775.31V725.329H983.848V678.836H929.936V598.092L878.961 612.078V785.109C878.961 830.206 903.154 848.029 940.724 848.029C974.717 848.029 995.625 834.044 995.625 834.044L982.219 789.645V789.616Z" fill="#4949E9"/>
</g>
<defs>
<clipPath id="clip0_529_387">
<rect width="1366" height="848" fill="white"/>
</clipPath>
</defs>
</svg>
