<svg width="901" height="901" viewBox="0 0 901 901" fill="none" xmlns="http://www.w3.org/2000/svg">
<path d="M500.229 362.133C500.773 362.405 501.318 362.623 501.863 362.896C501.972 362.296 502.026 361.697 502.026 361.098C501.427 361.425 500.882 361.752 500.229 362.133ZM411.326 362.732C410.727 362.95 410.127 363.222 409.474 363.549C410.127 363.876 410.89 364.257 411.544 364.639C411.435 364.04 411.326 363.386 411.271 362.732M500.229 362.133C500.773 362.405 501.318 362.623 501.863 362.896C501.972 362.296 502.026 361.697 502.026 361.098C501.427 361.425 500.882 361.752 500.229 362.133Z" fill="#4949E9"/>
<path d="M502.027 361.098C502.027 361.697 502.027 362.296 501.864 362.896C501.319 362.623 500.774 362.405 500.229 362.133C500.829 361.752 501.373 361.425 502.027 361.098Z" fill="#4949E9"/>
<path d="M411.599 364.638C410.946 364.257 410.183 363.875 409.529 363.548C410.129 363.167 410.728 362.895 411.381 362.731C411.381 363.33 411.545 363.984 411.654 364.638" fill="#4949E9"/>
<path d="M502.027 361.098C502.027 361.697 502.027 362.296 501.864 362.896C501.319 362.623 500.774 362.405 500.229 362.133C500.829 361.752 501.373 361.425 502.027 361.098Z" fill="#4949E9"/>
<path d="M411.599 364.638C410.946 364.257 410.183 363.875 409.529 363.548C410.129 363.167 410.728 362.895 411.381 362.731C411.381 363.33 411.545 363.984 411.654 364.638" fill="#4949E9"/>
<path d="M411.326 362.731C410.672 362.949 410.127 363.221 409.474 363.548C410.127 363.875 410.89 364.257 411.544 364.638C411.435 364.039 411.326 363.385 411.271 362.731" fill="#4949E9"/>
<path d="M769.008 131.923C593.108 -43.9745 307.824 -43.9745 131.924 131.923C-43.9748 307.876 -43.9748 593.104 131.924 769.056C307.878 945.008 593.054 944.954 769.008 769.056C856.984 681.025 901 565.758 901 450.49C901 335.222 856.984 219.954 769.008 131.923Z" fill="#4949E9"/>
<path d="M292.68 323.509L381.474 234.771C368.237 218.81 360.556 203.448 358.213 188.249C354.945 166.242 362.844 145.432 381.746 126.584C388.229 120.047 398.797 120.047 405.28 126.584C411.762 133.067 411.762 143.58 405.28 150.117C390.353 164.989 390.081 176.211 391.171 183.347C392.423 191.79 397.217 201.214 405.388 211.51C435.459 187.051 478.984 187.65 508.4 213.144C531.552 183.782 522.237 166.46 508.019 152.296C501.537 145.814 501.537 135.246 508.019 128.763C514.502 122.281 525.015 122.281 531.552 128.763C554.432 151.643 571.482 188.249 532.151 236.405L614.299 318.552C578.564 323.891 541.14 338.054 502.245 361.097C503.225 347.914 498.105 333.587 490.424 319.097L478.494 298.506C468.252 280.856 442.54 281.51 433.28 299.704L423.365 319.097C416.066 334.786 411.272 347.642 411.272 359.081C411.272 360.28 411.272 361.532 411.435 362.731C411.435 363.439 411.599 364.038 411.708 364.692C410.999 364.311 410.291 363.984 409.583 363.657C372.213 344.754 331.248 332.389 289.03 327.486C290.283 326.179 291.536 324.871 292.843 323.564" fill="#DCF343"/>
<path d="M619.149 649.975C589.351 679.772 553.452 699.71 515.483 709.788L465.911 485.135C464.931 480.777 461.063 477.672 456.596 477.672C452.129 477.672 448.207 480.777 447.281 485.135L397.709 710.169C359.25 700.146 322.806 680.099 292.627 649.975C214.129 571.477 203.996 450.489 262.23 361.042C328.962 364.147 393.841 387.898 444.721 428.373L455.725 437.198L466.837 428.536C531.118 378.474 590.223 352.762 643.281 351.945C672.208 392.093 686.698 439.431 686.698 486.769C686.698 545.82 664.145 604.924 619.04 649.975" fill="#DCF343"/>
</svg>
