<svg width="1366" height="250" viewBox="0 0 1366 250" fill="none" xmlns="http://www.w3.org/2000/svg">
<path d="M0 0H91.1035C151.558 0 189.448 29.0178 189.448 90.5425C189.448 152.067 151.558 180.038 91.1035 180.038H54.2317V244.703H0V0.02906V0ZM135.216 90.5425C135.216 62.5714 120.851 51.0574 91.1035 51.0574H54.2317V128.661H91.1035C120.502 128.661 135.216 116.42 135.216 90.5716" fill="#4949E9"/>
<path d="M282.674 249.937C224.517 249.937 193.81 209.725 193.81 163.61C193.81 117.496 224.197 76.208 282.674 76.208C341.151 76.208 371.538 115.722 371.538 163.61C371.538 211.498 340.831 249.937 282.674 249.937ZM320.273 163.232C320.273 140.524 308.496 121.625 282.703 121.625C256.91 121.625 245.133 140.146 245.133 163.232C245.133 186.319 258.539 204.84 282.703 204.84C306.867 204.84 320.273 187.016 320.273 163.232Z" fill="#4949E9"/>
<path d="M563.487 249.937C505.329 249.937 474.622 209.725 474.622 163.61C474.622 117.496 505.009 76.208 563.487 76.208C621.964 76.208 652.351 115.722 652.351 163.61C652.351 211.498 621.644 249.937 563.487 249.937ZM601.056 163.232C601.056 140.524 589.279 121.625 563.487 121.625C537.694 121.625 525.917 140.146 525.917 163.232C525.917 186.319 539.322 204.84 563.487 204.84C587.651 204.84 601.056 187.016 601.056 163.232Z" fill="#4949E9"/>
<path d="M804.432 65.5955C788.236 65.5955 777.535 55.07 777.535 39.2817C777.535 23.4935 788.236 12.3574 804.432 12.3574C820.629 12.3574 831.621 23.2027 831.621 39.2817C831.621 55.3607 820.629 65.5955 804.432 65.5955ZM778.611 81.093H829.905V244.674H778.611V81.093Z" fill="#4949E9"/>
<path d="M1101.06 249.937C1042.91 249.937 1012.2 209.725 1012.2 163.61C1012.2 117.496 1042.59 76.208 1101.06 76.208C1159.54 76.208 1189.93 115.722 1189.93 163.61C1189.93 211.498 1159.22 249.937 1101.06 249.937ZM1138.63 163.232C1138.63 140.524 1126.86 121.625 1101.06 121.625C1075.27 121.625 1063.49 140.146 1063.49 163.232C1063.49 186.319 1076.9 204.84 1101.06 204.84C1125.23 204.84 1138.63 187.016 1138.63 163.232Z" fill="#4949E9"/>
<path d="M1297.05 120.258C1278.76 120.258 1270.91 125.492 1270.91 133.895C1270.91 144.74 1285.28 145.787 1302.61 148.578C1330.06 153.463 1366 160.47 1366 197.164C1366 227.577 1341.17 249.937 1289.2 249.937C1233.66 249.937 1208.51 228.246 1208.51 228.246L1223.54 190.854C1223.54 190.854 1246.08 208.329 1285.63 208.329C1300.34 208.329 1309.15 203.793 1309.15 196.088C1309.15 184.545 1293.48 183.847 1274.52 180.707C1247.74 175.473 1214.06 167.768 1214.06 130.028C1214.06 104.499 1235.29 76.208 1293.13 76.208C1335.61 76.208 1360.1 88.7979 1360.1 88.7979L1349.31 133.546C1349.31 133.546 1331.34 120.258 1297.03 120.258" fill="#4949E9"/>
<path d="M729.526 191.552V0L678.231 13.9855V246.797H719.726C723.128 246.797 726.414 246.593 729.526 246.273V191.552Z" fill="#4949E9"/>
<path d="M448.742 191.552V0L397.447 13.9855V246.797H438.943C442.345 246.797 445.631 246.593 448.742 246.273V191.552Z" fill="#4949E9"/>
<path d="M982.219 191.553C982.219 191.553 970.443 200.304 951.163 200.304C935.81 200.304 929.936 193.675 929.936 177.247V127.266H983.848V80.7732H929.936V0.0292969L878.961 14.0148V187.046C878.961 232.143 903.154 249.966 940.724 249.966C974.717 249.966 995.625 235.981 995.625 235.981L982.219 191.582V191.553Z" fill="#4949E9"/>
</svg>
